<svg xmlns="http://www.w3.org/2000/svg" viewBox="0 0 268 56.2" role="img" aria-label="Gavna"><path class="logo-bolt" d="M35.8,23.7H24.5V12.4c0-1.8-1.1-3.4-2.7-4.1c-1.6-0.7-3.5-0.3-4.8,1L1.3,25c-1.3,1.3-1.6,3.1-1,4.8 c0.7,1.6,2.3,2.7,4.1,2.7h11.3v11.3c0,1.8,1.1,3.4,2.7,4.1c0.5,0.2,1.1,0.3,1.7,0.3c1.1,0,2.3-0.4,3.1-1.3l15.7-15.7 c1.3-1.3,1.6-3.1,1-4.8C39.2,24.8,37.6,23.7,35.8,23.7z"/><path class="logo-word" d="M112.1,28.1c0-1.5-1.2-2.7-2.7-2.7H84c-1.5,0-2.7,1.2-2.7,2.7s1.2,2.7,2.7,2.7h22.5c-0.6,5-2.8,9.7-6.5,13.3 c-4.3,4.3-10,6.6-16.1,6.6c-6.1,0-11.8-2.4-16.1-6.6c-4.3-4.3-6.7-10-6.7-16.1s2.4-11.8,6.7-16.1c4.3-4.3,10-6.6,16.1-6.6 c6.1,0,11.8,2.4,16.1,6.6c1.1,1.1,2.8,1.1,3.8,0c1.1-1.1,1.1-2.8,0-3.8C98.5,2.9,91.5,0,84,0S69.4,2.9,64.1,8.2 c-5.3,5.3-8.2,12.4-8.2,19.9c0,7.5,2.9,14.6,8.2,19.9c5.3,5.3,12.4,8.2,19.9,8.2c7.5,0,14.6-2.9,19.9-8.2 C109.2,42.7,112.1,35.6,112.1,28.1z"/><path class="logo-word" d="M135,1.9c-0.4-1.1-1.4-1.9-2.6-1.9s-2.2,0.7-2.6,1.9l-17,50.8c-0.5,1.4,0.3,3,1.7,3.4c1.4,0.5,3-0.3,3.4-1.7 l7.9-23.6H139l7.9,23.6c0.4,1.1,1.4,1.9,2.6,1.9c0.3,0,0.6,0,0.9-0.1c1.4-0.5,2.2-2,1.7-3.4L135,1.9z M127.7,25.4l4.7-14.1 l4.7,14.1H127.7z"/><path class="logo-word" d="M265.4,56.1c1.4-0.5,2.2-2,1.7-3.4l-17-50.8c-0.4-1.1-1.4-1.9-2.6-1.9s-2.2,0.7-2.6,1.9l-17,50.8 c-0.5,1.4,0.3,3,1.7,3.4c1.4,0.5,3-0.3,3.4-1.7l7.9-23.6h13.1l7.9,23.6c0.4,1.1,1.4,1.9,2.6,1.9C264.8,56.2,265.1,56.2,265.4,56.1z M242.9,25.4l4.7-14.1l4.7,14.1H242.9z"/><path class="logo-word" d="M185,0.1c-1.4-0.5-3,0.3-3.4,1.7l-14.2,43.1L153.1,1.9c-0.5-1.4-2-2.2-3.4-1.7c-1.4,0.5-2.2,2-1.7,3.4 l16.8,50.8c0.4,1.1,1.4,1.9,2.6,1.9c1.2,0,2.2-0.8,2.6-1.9l16.8-50.8C187.2,2.1,186.4,0.6,185,0.1z"/><path class="logo-word" d="M219.2,0c-1.5,0-2.7,1.2-2.7,2.7v38.6L198,1.6c-0.5-1.2-1.8-1.8-3-1.5c-1.2,0.3-2.1,1.4-2.1,2.6v50.8 c0,1.5,1.2,2.7,2.7,2.7s2.7-1.2,2.7-2.7V15l18.4,39.7c0.5,1,1.4,1.6,2.5,1.6c0.2,0,0.4,0,0.6-0.1c1.2-0.3,2.1-1.4,2.1-2.6V2.7 C221.9,1.2,220.7,0,219.2,0z"/></svg>